<svg id="Layer_1" data-name="Layer 1" xmlns="http://www.w3.org/2000/svg" viewBox="0 0 696.04 80"><defs><style>.cls-1{fill:#222a2e;}.cls-2{fill:#479d88;}.cls-3{fill:#8e9299;}</style></defs><title>density-open-source-logos-webdash</title><path class="cls-1" d="M126,20.54h18.53q10,0,16.3,6.23t6.32,16.95q0,10.72-6.38,16.95t-16.36,6.23H126V20.54Zm7.31,6.32V60.57h11.15q6.94,0,11.12-4.37t4.18-12.48q0-8.12-4.15-12.48t-11.09-4.37H133.34Z"/><path class="cls-1" d="M187,34.54q6.13,0,9.42,3.25t3.28,9.33V66.89h-7V64a12.1,12.1,0,0,1-8.61,3.47,11.51,11.51,0,0,1-7.71-2.45,8.49,8.49,0,0,1-2.88-6.85q0-8.92,11.65-9.6l7.56-.43V47.25q0-6.63-5.64-6.63a5.55,5.55,0,0,0-4.24,1.55A5.39,5.39,0,0,0,181.35,46l-7-.25a10.62,10.62,0,0,1,3.47-7.84A12.59,12.59,0,0,1,187,34.54Zm5.76,19-6.63.43q-5.64.31-5.64,4.09,0,3.59,4.77,3.59a8,8,0,0,0,5.48-1.77,6.59,6.59,0,0,0,2-5.24V53.57Z"/><path class="cls-1" d="M219.64,34.54q5.45,0,8.58,2.82a11.1,11.1,0,0,1,3.62,7.28l-6.94.37q-0.43-4.52-5.45-4.52t-5,3.53a3.31,3.31,0,0,0,.09.81,2,2,0,0,0,.31.68,3.82,3.82,0,0,0,.43.53,2.4,2.4,0,0,0,.68.43l0.77,0.34a9.88,9.88,0,0,0,1,.31l1.08,0.28,1.24,0.28L221.44,48a24.57,24.57,0,0,1,8.27,3.41,6.91,6.91,0,0,1,2.7,5.95,9.09,9.09,0,0,1-3.31,7.47q-3.32,2.7-9.14,2.7-5.64,0-9-2.7a10.66,10.66,0,0,1-4-7.47l6.94-.43q0.56,4.59,6.2,4.58a7.28,7.28,0,0,0,3.9-.93,3,3,0,0,0,1.49-2.66,2.85,2.85,0,0,0-1.36-2.66,23.31,23.31,0,0,0-5.51-1.8q-2.91-.68-4.52-1.24a17.76,17.76,0,0,1-3.31-1.58,6,6,0,0,1-2.45-2.6,9.06,9.06,0,0,1-.74-3.87,8.59,8.59,0,0,1,3.19-7Q213.94,34.54,219.64,34.54Z"/><path class="cls-1" d="M247.46,18.74v20q2.79-4.15,8.92-4.15a11.89,11.89,0,0,1,9,3.56q3.44,3.56,3.44,9.63V66.89h-7V48.67a8,8,0,0,0-1.89-5.61,6.5,6.5,0,0,0-5-2.08,6.94,6.94,0,0,0-5.33,2.2,7.83,7.83,0,0,0-2,5.55V66.89h-6.94V18.74h6.94Z"/><path class="cls-1" d="M285.2,18.74v20.2a9.48,9.48,0,0,1,4-3.19A15.81,15.81,0,0,1,306.33,39q4.28,4.49,4.28,12t-4.28,12a14.54,14.54,0,0,1-11,4.49,13.88,13.88,0,0,1-6.35-1.39,9.89,9.89,0,0,1-4.12-3.62v4.4h-6.57V18.74h6.94Zm9,21.75A8.68,8.68,0,0,0,287.68,43a9.77,9.77,0,0,0-2.48,7.13v1.67A9.77,9.77,0,0,0,287.68,59a8.68,8.68,0,0,0,6.51,2.54,8.87,8.87,0,0,0,6.75-2.76q2.6-2.76,2.6-7.71t-2.6-7.74A8.82,8.82,0,0,0,294.18,40.49Z"/><path class="cls-1" d="M333.28,34.54a16.38,16.38,0,0,1,11.87,4.52q4.68,4.52,4.68,12t-4.68,12a17.91,17.91,0,0,1-23.79,0q-4.68-4.52-4.68-12t4.68-12A16.46,16.46,0,0,1,333.28,34.54Zm6.88,8.77a9.8,9.8,0,0,0-13.76,0A10.78,10.78,0,0,0,323.74,51a10.69,10.69,0,0,0,2.66,7.65,9.8,9.8,0,0,0,13.76,0A10.69,10.69,0,0,0,342.82,51,10.78,10.78,0,0,0,340.15,43.31Z"/><path class="cls-1" d="M369.46,34.54q6.13,0,9.42,3.25t3.28,9.33V66.89h-7V64a12.1,12.1,0,0,1-8.61,3.47,11.51,11.51,0,0,1-7.71-2.45A8.49,8.49,0,0,1,356,58.21q0-8.92,11.65-9.6l7.56-.43V47.25q0-6.63-5.64-6.63a5.55,5.55,0,0,0-4.24,1.55A5.39,5.39,0,0,0,363.82,46l-7-.25a10.62,10.62,0,0,1,3.47-7.84A12.59,12.59,0,0,1,369.46,34.54Zm5.76,19-6.63.43q-5.64.31-5.64,4.09,0,3.59,4.77,3.59a8,8,0,0,0,5.48-1.77,6.59,6.59,0,0,0,2-5.24V53.57Z"/><path class="cls-1" d="M407.69,34.73v6.75a9,9,0,0,0-6.44,2.29,7.68,7.68,0,0,0-2.42,5.82V66.89h-6.94V35.1h6.75v4.46Q400.93,34.73,407.69,34.73Z"/><path class="cls-1" d="M444.12,66.89h-6.57v-4.4a9.9,9.9,0,0,1-4.12,3.62,13.89,13.89,0,0,1-6.35,1.39,14.54,14.54,0,0,1-11-4.49q-4.28-4.49-4.28-12t4.28-12a15.81,15.81,0,0,1,17.1-3.28,9.49,9.49,0,0,1,4,3.19V18.74h6.94V66.89ZM428.2,40.49a8.82,8.82,0,0,0-6.75,2.79q-2.6,2.79-2.6,7.74t2.6,7.71a8.86,8.86,0,0,0,6.75,2.76A8.68,8.68,0,0,0,434.7,59a9.78,9.78,0,0,0,2.48-7.13V50.16A9.78,9.78,0,0,0,434.7,43,8.68,8.68,0,0,0,428.2,40.49Z"/><path class="cls-2" d="M76.93,27.88H68.43l6-6a2.58,2.58,0,0,0,0-3.65L61.3,5.07a2.58,2.58,0,0,0-3.65,0l-6,6V2.58A2.58,2.58,0,0,0,49.05,0H30.46a2.58,2.58,0,0,0-2.58,2.58v8.51l-6-6a2.58,2.58,0,0,0-3.65,0L5.07,18.22a2.58,2.58,0,0,0,0,3.65l6,6H2.58A2.58,2.58,0,0,0,0,30.46V49.05a2.58,2.58,0,0,0,2.58,2.58h8.51l-6,6a2.58,2.58,0,0,0,0,3.65L18.22,74.44a2.58,2.58,0,0,0,3.65,0l6-6v8.51a2.58,2.58,0,0,0,2.58,2.58H49.05a2.58,2.58,0,0,0,2.58-2.58V68.43l6,6a2.58,2.58,0,0,0,3.65,0L74.44,61.3a2.58,2.58,0,0,0,0-3.65l-6-6h8.51a2.58,2.58,0,0,0,2.58-2.58V30.46A2.58,2.58,0,0,0,76.93,27.88ZM74.35,46.47H62.19a2.58,2.58,0,0,0-1.83,4.41l8.6,8.6L59.47,69l-8.6-8.6a2.58,2.58,0,0,0-4.41,1.83V74.35H33V62.19a2.58,2.58,0,0,0-4.41-1.83L20,69l-9.49-9.49,8.6-8.6a2.58,2.58,0,0,0-1.83-4.41H5.16V33H17.32a2.58,2.58,0,0,0,1.83-4.41L10.55,20,20,10.55l8.6,8.6A2.58,2.58,0,0,0,33,17.32V5.16H46.47V17.32a2.58,2.58,0,0,0,4.41,1.83l8.6-8.6L69,20l-8.6,8.6A2.58,2.58,0,0,0,62.19,33H74.35V46.47Z"/><path class="cls-2" d="M39.76,27.88A11.88,11.88,0,1,0,51.63,39.76,11.89,11.89,0,0,0,39.76,27.88Zm0,18.59a6.71,6.71,0,1,1,6.71-6.71A6.72,6.72,0,0,1,39.76,46.47Z"/><path class="cls-3" d="M497.47,55.54l-2.51.22a4.34,4.34,0,0,0-4.6-3.75c-3,0-5,2.13-5,5.63,0,3.67,2.21,5.63,5,5.63A4.3,4.3,0,0,0,495,59.67l2.53,0.22c-0.59,3.44-3.42,5.53-7,5.53-4.34,0-7.58-2.88-7.58-7.78s3.2-7.78,7.56-7.78C494,49.87,497,52,497.47,55.54Z"/><path class="cls-3" d="M505.14,56.92a2.65,2.65,0,0,0-2.9,2.65v5.65H500V54.83h2.21v1.46a3,3,0,0,1,3-1.58v2.21Z"/><path class="cls-3" d="M515.13,58.76v6.46h-2.29V64.29A4,4,0,0,1,510,65.43c-2.07,0-3.46-1.09-3.46-3,0-2.23,1.68-3,3.81-3.14l2.47-.14V58.8c0-1.34-.57-2.17-1.84-2.17a1.69,1.69,0,0,0-1.86,1.76l-2.29-.08A3.85,3.85,0,0,1,511,54.65C513.65,54.65,515.13,56.11,515.13,58.76ZM510.7,61c-1.07.06-1.84,0.41-1.84,1.34s0.65,1.17,1.56,1.17a2.16,2.16,0,0,0,2.45-2.29V60.87Z"/><path class="cls-3" d="M523.68,49.44v2a5.29,5.29,0,0,0-.65,0,1.83,1.83,0,0,0-1.95,2v1.5h2.55v2h-2.55v8.43h-2.27V56.79h-2v-2h2V53.39a3.71,3.71,0,0,1,4-4A5.41,5.41,0,0,1,523.68,49.44Z"/><path class="cls-3" d="M531.26,63.24v2a8.56,8.56,0,0,1-1.52.12c-2,0-3.46-1-3.44-3.36l0-5.23h-1.92v-2h1.92l0-3.53h2.29l0,3.53h2.63v2h-2.65l0,4.76a1.56,1.56,0,0,0,1.72,1.78A5.28,5.28,0,0,0,531.26,63.24Z"/><path class="cls-3" d="M535.21,60.89A2.62,2.62,0,0,0,538,63.46,2.31,2.31,0,0,0,540.46,62l2.29,0.12a4.63,4.63,0,0,1-4.7,3.32A5,5,0,0,1,532.8,60c0-3.38,2.17-5.39,5.19-5.39s4.86,2,4.86,5.13v1.11h-7.64Zm0-1.78h5.33A2.38,2.38,0,0,0,538,56.59,2.55,2.55,0,0,0,535.23,59.1Z"/><path class="cls-3" d="M553.26,65.22V63.78a3.87,3.87,0,0,1-3.42,1.64c-2.9,0-5-2.09-5-5.39s2.11-5.39,5-5.39a4,4,0,0,1,3.3,1.44v-6.6h2.27V65.22h-2.15ZM547.14,60c0,2.21,1.3,3.42,3.06,3.42a2.83,2.83,0,0,0,2.94-3.16V59.75a2.84,2.84,0,0,0-2.94-3.16C548.44,56.59,547.14,57.83,547.14,60Z"/><path class="cls-3" d="M565.68,56.09a4,4,0,0,1,3.3-1.44c2.9,0,5,2.07,5,5.39s-2.11,5.39-5,5.39a3.87,3.87,0,0,1-3.42-1.64v1.44h-2.15V49.48h2.27v6.6Zm0,3.67V60.3a2.83,2.83,0,0,0,2.94,3.16c1.76,0,3.06-1.22,3.06-3.42s-1.3-3.44-3.06-3.44A2.84,2.84,0,0,0,565.68,59.75Z"/><path class="cls-3" d="M576.4,70.39l2.55-5.9-4.11-9.66h2.53l2.8,7.11,2.8-7.11h2.53l-6.6,15.56H576.4Z"/><path class="cls-1" d="M647.39,54.49h1.93a0.37,0.37,0,0,1,.37.37v1A4,4,0,0,1,653,54.27c2.73,0,4.39,1.77,4.39,4.72v6.32h-2a0.37,0.37,0,0,1-.37-0.37V59.18c0-1.77-.89-2.9-2.62-2.9a2.78,2.78,0,0,0-2.75,3.07v6h-1.95a0.37,0.37,0,0,1-.37-0.37V54.49Z"/><path class="cls-1" d="M659.7,63l1.78-.93a0.36,0.36,0,0,1,.47.11,3.06,3.06,0,0,0,2.6,1.31c1.3,0,2-.67,2-1.43s-1.25-1.06-2.62-1.34c-1.84-.39-3.74-1-3.74-3.22,0-1.71,1.62-3.29,4.18-3.27a4.93,4.93,0,0,1,4.35,2.1l-1.65.91a0.37,0.37,0,0,1-.46-0.09,2.83,2.83,0,0,0-2.24-1c-1.23,0-1.86.61-1.86,1.3s1,1,2.55,1.34c1.77,0.39,3.79,1,3.79,3.22,0,1.49-1.3,3.5-4.37,3.48A5.06,5.06,0,0,1,659.7,63Z"/><path class="cls-1" d="M671.51,50h2a0.37,0.37,0,0,1,.37.37v2.12h-2a0.37,0.37,0,0,1-.37-0.37V50Zm0,4.52h2a0.37,0.37,0,0,1,.37.37V65.31h-2a0.37,0.37,0,0,1-.37-0.37V54.49Z"/><polygon class="cls-1" points="680.82 50.66 680.79 50.67 680.82 50.67 680.82 50.66"/><path class="cls-1" d="M682.91,63.15h-0.3a2.17,2.17,0,0,1-.92-0.18,1.45,1.45,0,0,1-.81-1.11,7.18,7.18,0,0,1-.05-0.93l0-4.38h2.27V54.85a0.37,0.37,0,0,0-.37-0.37h-1.93V50.67h0l-2.12,1.16a0.37,0.37,0,0,0-.19.32v2.34h-1.84V56.2a0.37,0.37,0,0,0,.37.37h1.47v0.2l0,5c0,2.44,1.45,3.49,3.58,3.49h0.06a9.11,9.11,0,0,0,1-.05l0.5-.07V63.49a0.37,0.37,0,0,0-.41-0.36Z"/><path class="cls-1" d="M689.44,64.74L685,54.49h2.25a0.37,0.37,0,0,1,.34.22L690.61,62l2.89-7.28a0.37,0.37,0,0,1,.34-0.23H696L689.6,70.08a0.37,0.37,0,0,1-.34.23h-2.14Z"/><path class="cls-1" d="M639.29,63.47a3.31,3.31,0,0,1-3.48-2.77h8.59a0.37,0.37,0,0,0,.37-0.37v-0.4a5.63,5.63,0,0,0-5.61-5.66,5.57,5.57,0,0,0-5.58,5.67A5.77,5.77,0,0,0,644,63.14l-1.63-.91a0.36,0.36,0,0,0-.45.08A3.41,3.41,0,0,1,639.29,63.47ZM639.2,56.3a3,3,0,0,1,3.2,2.42h-6.49A3.36,3.36,0,0,1,639.2,56.3Z"/><path class="cls-1" d="M618.4,49.89a0.37,0.37,0,0,1,.37-0.37h4.36c5.12,0,8.27,3.41,8.27,7.88a7.83,7.83,0,0,1-8.19,7.88H618.4V49.89Zm2.35,1.79V63.11H623c3.63,0,6-2.46,6-5.7s-2.18-5.72-6.13-5.72h-2.14Z"/><path class="cls-1" d="M600.87,60.6a5.79,5.79,0,0,0,2.8-5V51.81a0.37,0.37,0,0,1,.37-0.37h1.73a0.37,0.37,0,0,1,.37.37v3.83a5.79,5.79,0,0,0,2.8,5l3.41,2a0.37,0.37,0,0,1,.13.5l-0.87,1.5a0.37,0.37,0,0,1-.5.13l-3.35-1.94a5.8,5.8,0,0,0-5.73,0l-3.35,1.94a0.37,0.37,0,0,1-.5-0.13l-0.87-1.5a0.37,0.37,0,0,1,.13-0.5Z"/></svg>