<svg id="Layer_1" data-name="Layer 1" xmlns="http://www.w3.org/2000/svg" viewBox="0 0 672.66 80"><defs><style>.cls-1{fill:#222a2e;}.cls-2{fill:#479d88;}.cls-3{fill:#8e9299;}</style></defs><title>density-open-source-logos</title><path class="cls-1" d="M162.74,67.3l-11.41-33L140,67.3h-6.3L117.42,20.67h8l11.53,33.47,11.34-33.47h6.11L165.8,54.14l11.47-33.47h8L169,67.3h-6.23Z"/><path class="cls-1" d="M191.61,54a8.07,8.07,0,0,0,8.54,7.92c4.05,0,6.73-1.68,7.6-4.55l7,0.37c-1.25,5.67-7,10.22-14.46,10.22-9.41,0-16.14-6.23-16.14-16.58s6.67-16.58,16-16.58,15,6,15,15.77V54h-23.5Zm0.06-5.49h16.39c-0.19-4.61-2.81-7.73-8-7.73C195.41,40.74,192,43.48,191.67,48.47Z"/><path class="cls-1" d="M230.19,39.18c1.75-2.49,5.36-4.43,10.16-4.43,8.91,0,15.4,6.36,15.4,16.58s-6.48,16.58-15.4,16.58c-5,0-8.79-2.12-10.53-5V67.3h-6.61V18.86h7V39.18Zm0,11.28v1.68c0,6.36,3.8,9.72,9,9.72,5.42,0,9.41-3.74,9.41-10.53s-4-10.6-9.41-10.6C234,40.74,230.19,44.17,230.19,50.46Z"/><path class="cls-1" d="M297.2,20.67c13,0,22.75,8.6,22.75,23.31S310.11,67.3,297.08,67.3H278.56V20.67H297.2ZM285.92,60.94h11.22c9,0,15.4-5.8,15.4-17S306.3,27,297.2,27H285.92V60.94Z"/><path class="cls-1" d="M352.68,47.41V67.3h-7V64.43A12.3,12.3,0,0,1,337,67.92c-6.36,0-10.66-3.37-10.66-9.35,0-6.86,5.17-9.29,11.72-9.66l7.6-.44V47.53c0-4.11-1.75-6.67-5.67-6.67s-5.73,2.56-5.73,5.42l-7-.25c0-5.61,4.74-11.28,12.72-11.28C348.13,34.76,352.68,39.24,352.68,47.41ZM339,54.33c-3.3.19-5.67,1.25-5.67,4.11,0,2.68,2,3.62,4.8,3.62,4.43,0,7.54-2.18,7.54-7V53.89Z"/><path class="cls-1" d="M385,44.92l-7,.37c-0.25-2.68-1.93-4.55-5.49-4.55-3.3,0-5,1.37-5,3.55,0,2.74,2.74,3,7,4,6.61,1.68,11,3.68,11,9.41,0,6.42-4.74,10.22-12.53,10.22S360.73,64.05,360,57.7l7-.44c0.37,2.93,2.43,4.61,6.23,4.61,3.18,0,5.42-1.25,5.42-3.62,0-2.62-1.68-3.24-6.92-4.49-6.48-1.56-11.1-2.93-11.1-9.35,0-5.73,4.43-9.66,12.16-9.66S384.41,39.24,385,44.92Z"/><path class="cls-1" d="M400.75,38.93c1.5-2.24,4.49-4.18,9-4.18,7.29,0,12.47,5,12.47,13.28V67.3h-7V49c0-4.8-2.74-7.73-7-7.73-4.43,0-7.42,3.37-7.42,7.79V67.3h-7V18.86h7V38.93Z"/><path class="cls-2" d="M77.4,28.05H68.85L74.9,22a2.6,2.6,0,0,0,0-3.67L61.67,5.1A2.6,2.6,0,0,0,58,5.1l-6.05,6.05V2.6A2.6,2.6,0,0,0,49.35,0H30.65a2.6,2.6,0,0,0-2.6,2.6v8.56L22,5.1a2.6,2.6,0,0,0-3.67,0L5.1,18.33A2.6,2.6,0,0,0,5.1,22l6.05,6.05H2.6A2.6,2.6,0,0,0,0,30.65v18.7a2.6,2.6,0,0,0,2.6,2.6h8.56L5.1,58a2.6,2.6,0,0,0,0,3.67L18.33,74.9a2.6,2.6,0,0,0,3.67,0l6.05-6.05V77.4a2.6,2.6,0,0,0,2.6,2.6h18.7a2.6,2.6,0,0,0,2.6-2.6V68.85L58,74.9a2.6,2.6,0,0,0,3.67,0L74.9,61.67a2.6,2.6,0,0,0,0-3.67l-6.05-6.05H77.4a2.6,2.6,0,0,0,2.6-2.6V30.65A2.6,2.6,0,0,0,77.4,28.05Zm-2.6,18.7H62.57a2.6,2.6,0,0,0-1.84,4.43l8.65,8.65-9.55,9.55-8.65-8.65a2.6,2.6,0,0,0-4.43,1.84V74.81H33.25V62.57a2.6,2.6,0,0,0-4.43-1.84l-8.65,8.65-9.55-9.55,8.65-8.65a2.6,2.6,0,0,0-1.84-4.43H5.19V33.25H17.43a2.6,2.6,0,0,0,1.84-4.43l-8.65-8.65,9.55-9.55,8.65,8.65a2.6,2.6,0,0,0,4.43-1.84V5.19H46.75V17.43a2.6,2.6,0,0,0,4.43,1.84l8.65-8.65,9.55,9.55-8.65,8.65a2.6,2.6,0,0,0,1.84,4.43H74.81V46.75Z"/><path class="cls-2" d="M40,28.05A11.95,11.95,0,1,0,51.95,40,12,12,0,0,0,40,28.05Zm0,18.7A6.75,6.75,0,1,1,46.75,40,6.76,6.76,0,0,1,40,46.75Z"/><path class="cls-3" d="M474.09,57.62l-2.51.22a4.34,4.34,0,0,0-4.6-3.75c-3,0-5,2.13-5,5.63,0,3.67,2.21,5.63,5,5.63a4.3,4.3,0,0,0,4.58-3.61L474.11,62c-0.59,3.44-3.42,5.53-7,5.53-4.34,0-7.58-2.88-7.58-7.78s3.2-7.78,7.56-7.78C470.66,51.94,473.58,54.09,474.09,57.62Z"/><path class="cls-3" d="M481.76,59a2.64,2.64,0,0,0-2.9,2.65V67.3H476.6V56.91h2.21v1.46a3,3,0,0,1,3-1.58V59Z"/><path class="cls-3" d="M491.75,60.84V67.3h-2.29V66.37a4,4,0,0,1-2.82,1.13c-2.07,0-3.46-1.09-3.46-3,0-2.23,1.68-3,3.81-3.14l2.47-.14v-0.3c0-1.34-.57-2.17-1.84-2.17a1.69,1.69,0,0,0-1.86,1.76l-2.29-.08a3.85,3.85,0,0,1,4.13-3.67C490.27,56.72,491.75,58.18,491.75,60.84Zm-4.44,2.25c-1.07.06-1.84,0.41-1.84,1.34s0.65,1.17,1.56,1.17a2.16,2.16,0,0,0,2.45-2.29V62.94Z"/><path class="cls-3" d="M500.3,51.52v2a5.29,5.29,0,0,0-.65,0,1.83,1.83,0,0,0-1.95,2v1.5h2.55v2h-2.55V67.3h-2.27V58.87h-2v-2h2V55.47a3.71,3.71,0,0,1,4-4A5.41,5.41,0,0,1,500.3,51.52Z"/><path class="cls-3" d="M507.88,65.32v2a8.56,8.56,0,0,1-1.52.12c-2,0-3.46-1-3.44-3.36l0-5.23H501v-2h1.92l0-3.53h2.29l0,3.53h2.63v2H505.2l0,4.76a1.56,1.56,0,0,0,1.72,1.78A5.29,5.29,0,0,0,507.88,65.32Z"/><path class="cls-3" d="M511.83,63a2.62,2.62,0,0,0,2.78,2.57,2.31,2.31,0,0,0,2.47-1.48l2.29,0.12a4.63,4.63,0,0,1-4.7,3.32,5,5,0,0,1-5.25-5.39c0-3.38,2.17-5.39,5.19-5.39s4.86,2,4.86,5.13V63h-7.64Zm0-1.78h5.33a2.38,2.38,0,0,0-2.59-2.51A2.55,2.55,0,0,0,511.85,61.18Z"/><path class="cls-3" d="M529.88,67.3V65.86a3.87,3.87,0,0,1-3.42,1.64c-2.9,0-5-2.09-5-5.39s2.11-5.39,5-5.39a4,4,0,0,1,3.3,1.44v-6.6H532V67.3h-2.15Zm-6.12-5.19c0,2.21,1.3,3.42,3.06,3.42a2.83,2.83,0,0,0,2.94-3.16V61.83a2.84,2.84,0,0,0-2.94-3.16C525.06,58.67,523.76,59.91,523.76,62.11Z"/><path class="cls-3" d="M542.3,58.16a4,4,0,0,1,3.3-1.44c2.9,0,5,2.07,5,5.39s-2.11,5.39-5,5.39a3.87,3.87,0,0,1-3.42-1.64V67.3H540V51.56h2.27v6.6Zm0,3.67v0.55a2.83,2.83,0,0,0,2.94,3.16c1.76,0,3.06-1.22,3.06-3.42s-1.3-3.44-3.06-3.44A2.84,2.84,0,0,0,542.3,61.83Z"/><path class="cls-3" d="M553,72.47l2.55-5.9-4.11-9.66H554l2.8,7.11,2.8-7.11h2.53l-6.6,15.56H553Z"/><path class="cls-1" d="M624,56.57h1.93a0.37,0.37,0,0,1,.37.37v1a4,4,0,0,1,3.33-1.62c2.73,0,4.39,1.77,4.39,4.72v6.32h-2a0.37,0.37,0,0,1-.37-0.37V61.26c0-1.77-.89-2.9-2.62-2.9a2.78,2.78,0,0,0-2.75,3.07v6h-1.95A0.37,0.37,0,0,1,624,67V56.57Z"/><path class="cls-1" d="M636.32,65.09l1.78-.93a0.36,0.36,0,0,1,.47.11,3.06,3.06,0,0,0,2.6,1.31c1.3,0,2-.67,2-1.43s-1.25-1.06-2.62-1.34c-1.84-.39-3.74-1-3.74-3.22,0-1.71,1.62-3.29,4.18-3.27a4.93,4.93,0,0,1,4.35,2.1l-1.65.91a0.37,0.37,0,0,1-.46-0.09,2.83,2.83,0,0,0-2.24-1c-1.23,0-1.86.61-1.86,1.3s1,1,2.55,1.34c1.77,0.39,3.79,1,3.79,3.22,0,1.49-1.3,3.5-4.37,3.48A5.06,5.06,0,0,1,636.32,65.09Z"/><path class="cls-1" d="M648.13,52h2a0.37,0.37,0,0,1,.37.37v2.12h-2a0.37,0.37,0,0,1-.37-0.37V52Zm0,4.52h2a0.37,0.37,0,0,1,.37.37V67.38h-2a0.37,0.37,0,0,1-.37-0.37V56.57Z"/><polygon class="cls-1" points="657.44 52.74 657.41 52.75 657.44 52.75 657.44 52.74"/><path class="cls-1" d="M659.53,65.23h-0.3a2.17,2.17,0,0,1-.92-0.18,1.45,1.45,0,0,1-.81-1.11,7.18,7.18,0,0,1-.05-0.93l0-4.38h2.27V56.93a0.37,0.37,0,0,0-.37-0.37h-1.93V52.75h0l-2.12,1.16a0.37,0.37,0,0,0-.19.32v2.34h-1.84v1.71a0.37,0.37,0,0,0,.37.37h1.47v0.2l0,5c0,2.44,1.45,3.49,3.58,3.49h0.06a9.11,9.11,0,0,0,1-.05l0.5-.07V65.57a0.37,0.37,0,0,0-.41-0.36Z"/><path class="cls-1" d="M666.06,66.82l-4.48-10.26h2.25a0.37,0.37,0,0,1,.34.22l3.06,7.28,2.89-7.28a0.37,0.37,0,0,1,.34-0.23h2.2l-6.44,15.59a0.37,0.37,0,0,1-.34.23h-2.14Z"/><path class="cls-1" d="M615.9,65.54a3.31,3.31,0,0,1-3.48-2.77H621a0.37,0.37,0,0,0,.37-0.37V62a5.63,5.63,0,0,0-5.61-5.66A5.57,5.57,0,0,0,610.19,62a5.77,5.77,0,0,0,10.43,3.2L619,64.31a0.36,0.36,0,0,0-.45.08A3.41,3.41,0,0,1,615.9,65.54Zm-0.09-7.16a3,3,0,0,1,3.2,2.42h-6.49A3.36,3.36,0,0,1,615.82,58.38Z"/><path class="cls-1" d="M595,52a0.37,0.37,0,0,1,.37-0.37h4.36c5.12,0,8.27,3.41,8.27,7.88a7.83,7.83,0,0,1-8.19,7.88H595V52Zm2.35,1.79V65.19h2.22c3.63,0,6-2.46,6-5.7s-2.18-5.72-6.13-5.72h-2.14Z"/><path class="cls-1" d="M577.49,62.68a5.79,5.79,0,0,0,2.8-5V53.88a0.37,0.37,0,0,1,.37-0.37h1.73a0.37,0.37,0,0,1,.37.37v3.83a5.79,5.79,0,0,0,2.8,5l3.41,2a0.37,0.37,0,0,1,.13.5l-0.87,1.5a0.37,0.37,0,0,1-.5.13l-3.35-1.94a5.8,5.8,0,0,0-5.73,0l-3.35,1.94a0.37,0.37,0,0,1-.5-0.13l-0.87-1.5a0.37,0.37,0,0,1,.13-0.5Z"/></svg>